<svg width="27" height="9" viewBox="0 0 27 9" fill="none" xmlns="http://www.w3.org/2000/svg">
<path d="M12.351 1.84303H17.2095V8.44332H12.351V1.84303Z" fill="#0DDE65"/>
<path d="M0.0670758 5.23465C0.0670758 4.27516 0.345144 3.54485 0.901279 3.04372C1.46353 2.54259 2.26412 2.29202 3.30305 2.29202C4.3481 2.29202 5.14869 2.54259 5.70482 3.04372C6.26707 3.54485 6.54819 4.27516 6.54819 5.23465C6.54819 6.19414 6.25179 6.90611 5.65899 7.37058C5.0723 7.83504 4.28698 8.06727 3.30305 8.06727C2.32523 8.06727 1.53992 7.83504 0.947115 7.37058C0.360422 6.90611 0.0670758 6.19414 0.0670758 5.23465ZM4.10975 5.19798C4.10975 3.96348 3.84085 3.34623 3.30305 3.34623C2.77136 3.34623 2.50552 3.96348 2.50552 5.19798C2.50552 6.43248 2.77136 7.04973 3.30305 7.04973C3.84085 7.04973 4.10975 6.43248 4.10975 5.19798Z" fill="#003399"/>
<path d="M10.4723 3.50207C10.9001 3.50207 11.2668 3.68236 11.5724 4.04293C11.8841 4.4035 12.0399 4.87408 12.0399 5.45466C12.0399 6.02913 11.9696 6.86944 11.8291 7.9756H10.2248L10.0415 5.92218C9.98038 5.26826 9.80315 4.9413 9.5098 4.9413C9.16145 4.9413 8.97506 5.27132 8.95061 5.93135L8.88644 7.9756H7.1997L7.00719 3.63041H9.07895L9.04228 4.40961C9.07284 4.3485 9.14312 4.25377 9.25313 4.12543C9.36313 3.9971 9.47008 3.8932 9.57397 3.81375C9.84287 3.60597 10.1423 3.50207 10.4723 3.50207Z" fill="#003399"/>
<path d="M14.986 8.06727C14.2954 8.06727 13.7148 7.86865 13.2442 7.47141C12.7798 7.06806 12.5475 6.47832 12.5475 5.70217C12.5475 5.21326 12.6667 4.79769 12.9051 4.45545C13.339 3.81986 14.0112 3.50207 14.9218 3.50207C15.6185 3.50207 16.1502 3.64264 16.5169 3.92376C16.8836 4.19877 17.0669 4.58073 17.0669 5.06964C17.0669 5.44855 16.9141 5.75717 16.6086 5.99552C16.3091 6.22775 15.8691 6.34387 15.2885 6.34387C15.0502 6.34387 14.8363 6.32553 14.6468 6.28886L14.546 6.27053C14.5765 6.49054 14.6712 6.65555 14.8301 6.76555C14.9952 6.86944 15.1907 6.92139 15.4168 6.92139C15.7896 6.92139 16.1074 6.80833 16.3702 6.58221L16.9386 7.26974C16.8408 7.38586 16.7247 7.49586 16.5902 7.59975C16.4558 7.69754 16.2419 7.80143 15.9485 7.91143C15.6552 8.01533 15.3343 8.06727 14.986 8.06727ZM15.7285 4.98714C15.7285 4.86491 15.6796 4.76407 15.5818 4.68463C15.4902 4.60518 15.3618 4.56545 15.1968 4.56545C15.0318 4.56545 14.876 4.63879 14.7293 4.78546C14.5887 4.93214 14.5185 5.10631 14.5185 5.30799C14.6529 5.3691 14.8271 5.39966 15.041 5.39966C15.261 5.39966 15.4291 5.36299 15.5452 5.28965C15.6674 5.2102 15.7285 5.10937 15.7285 4.98714Z" fill="white"/>
<path d="M22.1452 7.9756H17.5708V7.0864C17.6258 7.02528 17.7755 6.86944 18.02 6.61888C18.2645 6.36831 18.4478 6.17275 18.57 6.03219C18.6984 5.88551 18.8542 5.70217 19.0375 5.48216C19.3859 5.04214 19.5601 4.66935 19.5601 4.36378C19.5601 3.90542 19.3339 3.67625 18.8817 3.67625C18.6189 3.67625 18.3347 3.74042 18.0292 3.86876L17.7725 2.86038C18.0292 2.70759 18.3531 2.5762 18.7442 2.46619C19.1414 2.35008 19.4867 2.29202 19.7801 2.29202C20.0795 2.29202 20.3515 2.31952 20.5959 2.37452C20.8465 2.42953 21.0849 2.51814 21.311 2.64037C21.5432 2.7626 21.7265 2.93983 21.861 3.17206C21.9954 3.39818 22.0627 3.66403 22.0627 3.96959C22.0566 4.86797 21.3415 5.74495 19.9176 6.60054L19.9726 6.72888L22.1452 6.2797V7.9756Z" fill="#003399"/>
<path d="M24.7357 5.95885C24.7357 5.37827 24.2865 5.08798 23.3882 5.08798H23.2232L24.0024 3.68541L22.6731 3.4379L22.9665 2.42036H26.8625L25.8174 4.2171C25.848 4.22933 25.8908 4.24766 25.9458 4.27211C26.0008 4.29044 26.0955 4.34544 26.23 4.43711C26.3644 4.52267 26.4836 4.62657 26.5875 4.7488C26.6914 4.86491 26.7861 5.02992 26.8717 5.24382C26.9572 5.4516 27 5.68078 27 5.93135C27 6.54248 26.7617 7.05279 26.285 7.46225C25.8083 7.8656 25.2338 8.06727 24.5616 8.06727C24.2193 8.06727 23.8832 8.01227 23.5532 7.90227C23.2293 7.78615 22.9909 7.67003 22.8382 7.55392L22.5998 7.38891L23.0398 6.50887C23.3332 6.67388 23.6143 6.75638 23.8832 6.75638C24.1521 6.75638 24.3599 6.68916 24.5066 6.55471C24.6593 6.42026 24.7357 6.22164 24.7357 5.95885Z" fill="#003399"/>
<path d="M1.18695 1.20912C1.18695 1.30687 1.17451 1.39595 1.14964 1.47635C1.12535 1.55618 1.08862 1.62501 1.03945 1.68286C0.990283 1.74012 0.928679 1.78437 0.854639 1.81561C0.780599 1.84684 0.693834 1.86246 0.594343 1.86246C0.493117 1.86246 0.405194 1.84684 0.330576 1.81561C0.256536 1.78437 0.194933 1.73983 0.145766 1.68199C0.0971773 1.62414 0.0607358 1.55502 0.0364415 1.47462C0.0121472 1.39422 0 1.30514 0 1.20738C0 1.07665 0.0214021 0.962703 0.0642064 0.865525C0.107589 0.76777 0.173242 0.691995 0.261164 0.6382C0.349665 0.583827 0.461303 0.556641 0.596078 0.556641C0.727962 0.556641 0.837575 0.583538 0.924919 0.637332C1.01226 0.691127 1.07763 0.766902 1.12101 0.864658C1.16497 0.961835 1.18695 1.07665 1.18695 1.20912ZM0.218649 1.20912C0.218649 1.30687 0.231953 1.39161 0.258561 1.46334C0.285169 1.53449 0.325949 1.58944 0.3809 1.62819C0.43643 1.66637 0.507578 1.68546 0.594343 1.68546C0.681687 1.68546 0.752835 1.66637 0.807786 1.62819C0.862737 1.58944 0.903228 1.53449 0.929258 1.46334C0.955287 1.39161 0.968302 1.30687 0.968302 1.20912C0.968302 1.06046 0.938513 0.944193 0.878934 0.86032C0.819933 0.775868 0.725648 0.733642 0.596078 0.733642C0.509313 0.733642 0.437876 0.75273 0.381768 0.790907C0.326238 0.829084 0.285169 0.883746 0.258561 0.954894C0.231953 1.02546 0.218649 1.1102 0.218649 1.20912Z" fill="#003399"/>
<path d="M2.31681 0.576597C2.48051 0.576597 2.59995 0.610146 2.67515 0.677245C2.75035 0.744343 2.78795 0.838339 2.78795 0.959232C2.78795 1.01418 2.77927 1.06653 2.76192 1.11628C2.74514 1.16544 2.71738 1.20912 2.67862 1.24729C2.63987 1.28489 2.58868 1.31468 2.52505 1.33666C2.462 1.35864 2.3842 1.36963 2.29165 1.36963H2.15629V1.84511H1.94806V0.576597H2.31681ZM2.30293 0.74926H2.15629V1.1961H2.26996C2.33532 1.1961 2.39085 1.18858 2.43655 1.17354C2.48224 1.15792 2.51695 1.13334 2.54066 1.09979C2.56438 1.06624 2.57624 1.02199 2.57624 0.967041C2.57624 0.89358 2.55397 0.838917 2.50943 0.803054C2.46547 0.767191 2.39663 0.74926 2.30293 0.74926Z" fill="#003399"/>
<path d="M3.96986 1.84511H3.76076V0.753598H3.3894V0.576597H4.34035V0.753598H3.96986V1.84511Z" fill="#003399"/>
<path d="M5.02337 1.84511V0.576597H5.23161V1.84511H5.02337Z" fill="#003399"/>
<path d="M6.60267 1.84511L6.23739 0.785701H6.22958C6.23132 0.809417 6.23334 0.84181 6.23566 0.882879C6.23797 0.923948 6.24 0.967909 6.24173 1.01476C6.24347 1.06162 6.24433 1.10644 6.24433 1.14925V1.84511H6.05518V0.576597H6.34758L6.69898 1.58915H6.70419L7.06774 0.576597H7.35927V1.84511H7.16058V1.13884C7.16058 1.10008 7.16115 1.05814 7.16231 1.01303C7.16405 0.967909 7.16578 0.925104 7.16752 0.884614C7.16983 0.844123 7.17157 0.811731 7.17272 0.787437H7.16578L6.78662 1.84511H6.60267Z" fill="#003399"/>
<path d="M9.17805 0.576597V1.3974C9.17805 1.4859 9.15925 1.56514 9.12165 1.63513C9.08463 1.70513 9.02852 1.76066 8.95332 1.80172C8.87813 1.84221 8.78355 1.86246 8.6696 1.86246C8.50706 1.86246 8.38327 1.81995 8.29824 1.73492C8.21379 1.64931 8.17157 1.53564 8.17157 1.39393V0.576597H8.3798V1.37571C8.3798 1.48156 8.40468 1.55965 8.45442 1.60997C8.50417 1.6603 8.5785 1.68546 8.67741 1.68546C8.74566 1.68546 8.80119 1.6736 8.844 1.64988C8.88738 1.62559 8.9192 1.59031 8.93944 1.54403C8.96026 1.49718 8.97068 1.44078 8.97068 1.37484V0.576597H9.17805Z" fill="#003399"/>
<path d="M10.7235 1.49978C10.7235 1.57498 10.705 1.63976 10.668 1.69414C10.6315 1.74851 10.5789 1.79016 10.5101 1.81908C10.4418 1.848 10.3603 1.86246 10.2654 1.86246C10.2191 1.86246 10.1749 1.85986 10.1326 1.85465C10.0904 1.84945 10.0505 1.84193 10.0129 1.83209C9.97588 1.82168 9.94204 1.80924 9.91139 1.79478V1.59869C9.96287 1.62125 10.0204 1.64179 10.0841 1.6603C10.1477 1.67823 10.2125 1.68719 10.2784 1.68719C10.3322 1.68719 10.3767 1.68025 10.412 1.66637C10.4479 1.65191 10.4745 1.63166 10.4918 1.60563C10.5092 1.57903 10.5179 1.54808 10.5179 1.5128C10.5179 1.4752 10.5078 1.44338 10.4875 1.41735C10.4673 1.39132 10.4366 1.36761 10.3955 1.34621C10.355 1.32423 10.3041 1.3008 10.2428 1.27593C10.2012 1.25915 10.1613 1.24006 10.1231 1.21866C10.0855 1.19726 10.0519 1.1721 10.0224 1.14317C9.99295 1.11425 9.96952 1.08013 9.95217 1.04079C9.93539 1.00088 9.927 0.954026 9.927 0.900232C9.927 0.828506 9.94407 0.767191 9.9782 0.716289C10.0129 0.665387 10.0615 0.626342 10.124 0.599156C10.187 0.571969 10.2605 0.558376 10.3443 0.558376C10.4109 0.558376 10.4733 0.565317 10.5318 0.5792C10.5908 0.593082 10.6486 0.612749 10.7053 0.6382L10.6393 0.805657C10.5873 0.784255 10.5367 0.767191 10.4875 0.754466C10.4389 0.74174 10.3892 0.735377 10.3383 0.735377C10.2943 0.735377 10.257 0.742029 10.2263 0.755333C10.1957 0.768637 10.1723 0.787437 10.1561 0.811731C10.1404 0.835447 10.1326 0.86379 10.1326 0.896761C10.1326 0.933781 10.1416 0.965016 10.1595 0.990468C10.178 1.01534 10.2064 1.03819 10.2446 1.05901C10.2833 1.07984 10.3331 1.10297 10.3938 1.12842C10.4638 1.15735 10.5231 1.18771 10.5717 1.21953C10.6208 1.25134 10.6584 1.28952 10.6845 1.33406C10.7105 1.37802 10.7235 1.43326 10.7235 1.49978Z" fill="#003399"/>
</svg>
