<svg width="21" height="22" viewBox="0 0 21 22" fill="none" xmlns="http://www.w3.org/2000/svg">
<path d="M1.3125 5.74994C1.3125 5.05375 1.58906 4.38607 2.08134 3.89378C2.57363 3.4015 3.24131 3.12494 3.9375 3.12494H4.59375V2.48715C4.59375 2.134 4.86527 1.8309 5.21842 1.81326C5.30715 1.80899 5.39582 1.82277 5.47907 1.85378C5.56232 1.88479 5.6384 1.93237 5.70271 1.99366C5.76703 2.05494 5.81823 2.12864 5.85321 2.21029C5.8882 2.29195 5.90624 2.37986 5.90625 2.46869V3.12494H15.0938V2.48715C15.0938 2.134 15.3653 1.8309 15.7184 1.81326C15.8071 1.80899 15.8958 1.82277 15.9791 1.85378C16.0623 1.88479 16.1384 1.93237 16.2027 1.99366C16.267 2.05494 16.3182 2.12864 16.3532 2.21029C16.3882 2.29195 16.4062 2.37986 16.4062 2.46869V3.12494H17.0625C17.7587 3.12494 18.4264 3.4015 18.9187 3.89378C19.4109 4.38607 19.6875 5.05375 19.6875 5.74994V6.24213C19.6875 6.28564 19.6702 6.32737 19.6394 6.35814C19.6087 6.38891 19.5669 6.40619 19.5234 6.40619H1.47656C1.43305 6.40619 1.39132 6.38891 1.36055 6.35814C1.32978 6.32737 1.3125 6.28564 1.3125 6.24213V5.74994ZM19.6875 17.5624C19.6875 18.2586 19.4109 18.9263 18.9187 19.4186C18.4264 19.9109 17.7587 20.1874 17.0625 20.1874H3.9375C3.24131 20.1874 2.57363 19.9109 2.08134 19.4186C1.58906 18.9263 1.3125 18.2586 1.3125 17.5624V7.84174C1.3125 7.8091 1.32546 7.77781 1.34854 7.75473C1.37162 7.73165 1.40291 7.71869 1.43555 7.71869H19.5645C19.5971 7.71869 19.6284 7.73165 19.6515 7.75473C19.6745 7.77781 19.6875 7.8091 19.6875 7.84174V17.5624ZM5.57812 9.03119C5.38343 9.03119 5.19312 9.08892 5.03124 9.19709C4.86936 9.30525 4.74319 9.45899 4.66868 9.63886C4.59418 9.81873 4.57468 10.0167 4.61266 10.2076C4.65065 10.3986 4.7444 10.574 4.88207 10.7116C5.01973 10.8493 5.19513 10.943 5.38608 10.981C5.57703 11.019 5.77496 10.9995 5.95483 10.925C6.1347 10.8505 6.28844 10.7243 6.3966 10.5625C6.50477 10.4006 6.5625 10.2103 6.5625 10.0156C6.5625 9.75449 6.45879 9.50411 6.27418 9.31951C6.08958 9.1349 5.8392 9.03119 5.57812 9.03119ZM5.57812 12.3124C5.38343 12.3124 5.19312 12.3702 5.03124 12.4783C4.86936 12.5865 4.74319 12.7402 4.66868 12.9201C4.59418 13.1 4.57468 13.2979 4.61266 13.4889C4.65065 13.6798 4.7444 13.8552 4.88207 13.9929C5.01973 14.1305 5.19513 14.2243 5.38608 14.2623C5.57703 14.3003 5.77496 14.2808 5.95483 14.2063C6.1347 14.1318 6.28844 14.0056 6.3966 13.8437C6.50477 13.6818 6.5625 13.4915 6.5625 13.2968C6.5625 13.0357 6.45879 12.7854 6.27418 12.6008C6.08958 12.4162 5.8392 12.3124 5.57812 12.3124ZM8.85938 9.03119C8.66468 9.03119 8.47437 9.08892 8.31249 9.19709C8.15061 9.30525 8.02444 9.45899 7.94993 9.63886C7.87543 9.81873 7.85593 10.0167 7.89391 10.2076C7.9319 10.3986 8.02565 10.574 8.16332 10.7116C8.30098 10.8493 8.47638 10.943 8.66733 10.981C8.85828 11.019 9.05621 10.9995 9.23608 10.925C9.41595 10.8505 9.56969 10.7243 9.67785 10.5625C9.78602 10.4006 9.84375 10.2103 9.84375 10.0156C9.84375 9.75449 9.74004 9.50411 9.55543 9.31951C9.37083 9.1349 9.12045 9.03119 8.85938 9.03119ZM8.85938 12.3124C8.66468 12.3124 8.47437 12.3702 8.31249 12.4783C8.15061 12.5865 8.02444 12.7402 7.94993 12.9201C7.87543 13.1 7.85593 13.2979 7.89391 13.4889C7.9319 13.6798 8.02565 13.8552 8.16332 13.9929C8.30098 14.1305 8.47638 14.2243 8.66733 14.2623C8.85828 14.3003 9.05621 14.2808 9.23608 14.2063C9.41595 14.1318 9.56969 14.0056 9.67785 13.8437C9.78602 13.6818 9.84375 13.4915 9.84375 13.2968C9.84375 13.0357 9.74004 12.7854 9.55543 12.6008C9.37083 12.4162 9.12045 12.3124 8.85938 12.3124ZM8.85938 15.5937C8.66468 15.5937 8.47437 15.6514 8.31249 15.7596C8.15061 15.8678 8.02444 16.0215 7.94993 16.2014C7.87543 16.3812 7.85593 16.5792 7.89391 16.7701C7.9319 16.9611 8.02565 17.1365 8.16332 17.2741C8.30098 17.4118 8.47638 17.5055 8.66733 17.5435C8.85828 17.5815 9.05621 17.562 9.23608 17.4875C9.41595 17.413 9.56969 17.2868 9.67785 17.125C9.78602 16.9631 9.84375 16.7728 9.84375 16.5781C9.84375 16.317 9.74004 16.0666 9.55543 15.882C9.37083 15.6974 9.12045 15.5937 8.85938 15.5937ZM12.1406 12.3124C11.9459 12.3124 11.7556 12.3702 11.5937 12.4783C11.4319 12.5865 11.3057 12.7402 11.2312 12.9201C11.1567 13.1 11.1372 13.2979 11.1752 13.4889C11.2131 13.6798 11.3069 13.8552 11.4446 13.9929C11.5822 14.1305 11.7576 14.2243 11.9486 14.2623C12.1395 14.3003 12.3375 14.2808 12.5173 14.2063C12.6972 14.1318 12.8509 14.0056 12.9591 13.8437C13.0673 13.6818 13.125 13.4915 13.125 13.2968C13.125 13.0357 13.0213 12.7854 12.8367 12.6008C12.6521 12.4162 12.4017 12.3124 12.1406 12.3124ZM12.1406 15.5937C11.9459 15.5937 11.7556 15.6514 11.5937 15.7596C11.4319 15.8678 11.3057 16.0215 11.2312 16.2014C11.1567 16.3812 11.1372 16.5792 11.1752 16.7701C11.2131 16.9611 11.3069 17.1365 11.4446 17.2741C11.5822 17.4118 11.7576 17.5055 11.9486 17.5435C12.1395 17.5815 12.3375 17.562 12.5173 17.4875C12.6972 17.413 12.8509 17.2868 12.9591 17.125C13.0673 16.9631 13.125 16.7728 13.125 16.5781C13.125 16.317 13.0213 16.0666 12.8367 15.882C12.6521 15.6974 12.4017 15.5937 12.1406 15.5937ZM15.4219 12.3124C15.2272 12.3124 15.0369 12.3702 14.875 12.4783C14.7131 12.5865 14.5869 12.7402 14.5124 12.9201C14.4379 13.1 14.4184 13.2979 14.4564 13.4889C14.4944 13.6798 14.5881 13.8552 14.7258 13.9929C14.8635 14.1305 15.0389 14.2243 15.2298 14.2623C15.4208 14.3003 15.6187 14.2808 15.7986 14.2063C15.9785 14.1318 16.1322 14.0056 16.2404 13.8437C16.3485 13.6818 16.4062 13.4915 16.4062 13.2968C16.4062 13.0357 16.3025 12.7854 16.1179 12.6008C15.9333 12.4162 15.6829 12.3124 15.4219 12.3124ZM15.4219 15.5937C15.2272 15.5937 15.0369 15.6514 14.875 15.7596C14.7131 15.8678 14.5869 16.0215 14.5124 16.2014C14.4379 16.3812 14.4184 16.5792 14.4564 16.7701C14.4944 16.9611 14.5881 17.1365 14.7258 17.2741C14.8635 17.4118 15.0389 17.5055 15.2298 17.5435C15.4208 17.5815 15.6187 17.562 15.7986 17.4875C15.9785 17.413 16.1322 17.2868 16.2404 17.125C16.3485 16.9631 16.4062 16.7728 16.4062 16.5781C16.4062 16.317 16.3025 16.0666 16.1179 15.882C15.9333 15.6974 15.6829 15.5937 15.4219 15.5937Z" fill="#003399"/>
</svg>
