<svg width="18" height="31" viewBox="0 0 18 31" fill="none" xmlns="http://www.w3.org/2000/svg">
<path d="M8.08967 12.9589C7.23083 14.3418 5.83522 14.9525 4.4575 14.9525C3.34816 14.9525 2.23883 14.3598 1.63049 13.0666C1.30842 11.6657 2.0778 10.7677 3.67023 10.193L8.17913 8.55862C7.57079 6.92424 6.21096 5.95439 4.36804 5.95439C1.8452 5.95439 0.19909 7.80429 0.19909 10.624C0.19909 13.4438 1.8452 15.2937 4.36804 15.2937C6.06782 15.2937 7.49922 14.4496 8.2507 13.0487L8.08967 12.9589ZM3.83126 9.90563C2.29251 10.4624 1.39789 11.1449 1.39789 12.4201C1.25475 11.8992 1.16528 11.3065 1.16528 10.624C1.16528 7.91205 2.45354 6.13399 4.36804 6.13399C5.69208 6.13399 6.71195 6.97812 7.23083 8.39698C7.28451 8.54066 7.21294 8.66638 7.0698 8.72026L3.83126 9.90563Z" fill="url(#paint0_linear_1484_15238)"/>
<path d="M16.0676 14.0724C16.0676 15.15 16.6402 15.2937 17.0875 15.2937C17.4811 15.2937 17.8032 15.0602 18 14.8088L17.9463 14.7549C17.839 14.8447 17.66 14.9165 17.4632 14.9165C17.1948 14.9165 16.9622 14.8088 16.9622 14.1802V0.799805L15.2446 1.42841V1.51821C15.8708 1.51821 16.0676 1.73374 16.0676 2.36234V7.22956C15.334 6.34951 14.4215 5.95439 13.4195 5.95439C10.6462 5.95439 9.23269 8.16349 9.23269 10.8575C9.23269 13.1924 10.0557 15.2937 12.4533 15.2937C14.1889 15.2937 15.3519 13.5695 16.0676 11.3604V14.0724ZM16.0676 10.7318C15.3519 13.1924 14.1352 15.0782 12.507 15.0782C11.1293 15.0782 10.1989 13.2822 10.1989 10.7677C10.1989 8.50474 11.0935 6.16991 13.4374 6.16991C14.672 6.16991 15.4951 6.78056 16.0676 7.51692V10.7318Z" fill="url(#paint1_linear_1484_15238)"/>
<path d="M1.1988 23.1414C1.1988 22.7463 1.44929 22.3332 1.86082 21.9201C2.54073 22.6385 3.54271 23.0516 4.68783 23.0516C6.79914 23.0516 8.40946 21.6507 8.40946 19.5314C8.40946 18.8669 8.24843 18.2742 7.96215 17.7713C8.89256 17.017 9.53668 16.2627 9.53668 15.4545C9.53668 15.0234 9.28619 14.7361 8.87467 14.7361C8.53471 14.7361 8.26632 15.0055 8.26632 15.3467C8.26632 15.6879 8.53471 15.9574 8.87467 15.9574C9.05359 15.9574 9.21462 15.8855 9.32198 15.7598C9.14305 16.3884 8.57049 16.9811 7.8369 17.5738C7.19277 16.6039 6.04765 16.0292 4.68783 16.0292C2.57652 16.0292 0.966193 17.4301 0.966193 19.5314C0.966193 20.4115 1.25247 21.1658 1.73557 21.7585C1.25247 22.2434 0.966193 22.7463 0.966193 23.2672C0.966193 26.8772 9.07148 23.7162 9.07148 27.0388C9.07148 28.7091 6.656 29.6969 4.41944 29.6969C2.52284 29.6969 0.787269 28.9965 0.787269 27.4339C0.787269 26.8053 1.05566 26.2306 1.87871 25.7457L1.84292 25.6559C0.572559 26.033 0 26.949 0 27.865C0 29.4634 1.78925 30.1998 3.7932 30.1998C6.35183 30.1998 9.28619 28.9965 9.28619 26.9131C9.28619 22.459 1.1988 25.6379 1.1988 23.1414ZM1.91449 19.5314C1.91449 17.484 3.02383 16.2088 4.68783 16.2088C5.90451 16.2088 6.81703 16.8913 7.22856 18.0407C5.65402 19.1363 3.57849 20.196 2.25445 21.2915C2.03974 20.8066 1.91449 20.2139 1.91449 19.5314ZM2.36181 21.4891C3.63217 20.4654 5.7077 19.4057 7.30013 18.2742C7.40748 18.6514 7.46116 19.0645 7.46116 19.5314C7.46116 21.5789 6.35183 22.872 4.68783 22.872C3.65006 22.872 2.82701 22.3692 2.36181 21.4891Z" fill="url(#paint2_linear_1484_15238)"/>
<path d="M17.6028 23.0337C16.744 24.4166 15.3484 25.0273 13.9707 25.0273C12.8613 25.0273 11.752 24.4346 11.1437 23.1414C10.8216 21.7405 11.591 20.8425 13.1834 20.2678L17.6923 18.6334C17.084 16.999 15.7241 16.0292 13.8812 16.0292C11.3584 16.0292 9.71226 17.8791 9.71226 20.6988C9.71226 23.5186 11.3584 25.3685 13.8812 25.3685C15.581 25.3685 17.0124 24.5244 17.7639 23.1235L17.6028 23.0337ZM13.3444 19.9804C11.8057 20.5372 10.9111 21.2197 10.9111 22.4949C10.7679 21.974 10.6784 21.3813 10.6784 20.6988C10.6784 17.9869 11.9667 16.2088 13.8812 16.2088C15.2052 16.2088 16.2251 17.0529 16.744 18.4718C16.7977 18.6155 16.7261 18.7412 16.583 18.7951L13.3444 19.9804Z" fill="url(#paint3_linear_1484_15238)"/>
<path d="M2.63192 3.5599C2.63192 3.95085 2.53316 4.25826 2.33565 4.48214C2.13925 4.70601 1.86573 4.81795 1.51509 4.81795C1.15668 4.81795 0.879834 4.70824 0.684542 4.48882C0.490359 4.26828 0.393268 3.95753 0.393268 3.55656C0.393268 3.15892 0.490914 2.85095 0.686206 2.63264C0.881499 2.41322 1.1589 2.30351 1.51842 2.30351C1.86795 2.30351 2.14091 2.41489 2.33731 2.63766C2.53372 2.86042 2.63192 3.16783 2.63192 3.5599ZM0.692864 3.5599C0.692864 3.8907 0.76277 4.14187 0.902581 4.31339C1.0435 4.48381 1.24767 4.56901 1.51509 4.56901C1.78473 4.56901 1.98834 4.48381 2.12593 4.31339C2.26352 4.14298 2.33232 3.89181 2.33232 3.5599C2.33232 3.23132 2.26352 2.98238 2.12593 2.81308C1.98945 2.64267 1.78695 2.55746 1.51842 2.55746C1.24878 2.55746 1.0435 2.64322 0.902581 2.81475C0.76277 2.98517 0.692864 3.23355 0.692864 3.5599Z" fill="#003399"/>
<path d="M4.7191 3.05367C4.7191 3.30093 4.63477 3.4914 4.46611 3.62505C4.29856 3.7576 4.05833 3.82387 3.74542 3.82387H3.45914V4.78454H3.17618V2.34194H3.807C4.41507 2.34194 4.7191 2.57918 4.7191 3.05367ZM3.45914 3.57995H3.71379C3.96457 3.57995 4.14599 3.53929 4.25806 3.45798C4.37013 3.37667 4.42617 3.24636 4.42617 3.06703C4.42617 2.90553 4.37346 2.78524 4.26805 2.70616C4.16263 2.62707 3.99841 2.58753 3.77538 2.58753H3.45914V3.57995Z" fill="#003399"/>
<path d="M5.97907 4.78454H5.69612V2.59422H4.92549V2.34194H6.7497V2.59422H5.97907V4.78454Z" fill="#003399"/>
<path d="M7.11754 4.78454V2.34194H7.40049V4.78454H7.11754Z" fill="#003399"/>
<path d="M9.14647 4.78454L8.32092 2.61928H8.3076C8.32314 2.79081 8.3309 2.99463 8.3309 3.23076V4.78454H8.06959V2.34194H8.49568L9.26631 4.35683H9.27962L10.0569 2.34194H10.4797V4.78454H10.1967V3.21071C10.1967 3.03028 10.2045 2.83424 10.22 2.62262H10.2067L9.3745 4.78454H9.14647Z" fill="#003399"/>
<path d="M12.9863 2.34194V3.92244C12.9863 4.2009 12.9025 4.41976 12.735 4.57904C12.5674 4.73831 12.3372 4.81795 12.0442 4.81795C11.7513 4.81795 11.5244 4.73776 11.3635 4.57737C11.2037 4.41698 11.1238 4.19644 11.1238 3.91576V2.34194H11.4068V3.93581C11.4068 4.13964 11.4622 4.29613 11.5732 4.40528C11.6842 4.51444 11.8473 4.56901 12.0625 4.56901C12.2678 4.56901 12.4259 4.51444 12.5369 4.40528C12.6479 4.29502 12.7033 4.13741 12.7033 3.93247V2.34194H12.9863Z" fill="#003399"/>
<path d="M15.0052 4.13463C15.0052 4.34959 14.9276 4.51722 14.7722 4.63751C14.6169 4.75781 14.406 4.81795 14.1397 4.81795C13.8512 4.81795 13.6293 4.78064 13.474 4.70601V4.43202C13.5738 4.47434 13.6826 4.50775 13.8002 4.53226C13.9178 4.55676 14.0343 4.56901 14.1497 4.56901C14.3384 4.56901 14.4804 4.53337 14.5758 4.46209C14.6712 4.38969 14.719 4.28945 14.719 4.16136C14.719 4.07671 14.7018 4.00765 14.6674 3.95419C14.6341 3.89961 14.5775 3.84949 14.4976 3.80382C14.4188 3.75816 14.2984 3.70636 14.1364 3.64844C13.9101 3.56714 13.748 3.47079 13.6504 3.35941C13.5539 3.24803 13.5056 3.10267 13.5056 2.92335C13.5056 2.73512 13.5761 2.58531 13.717 2.47393C13.8579 2.36254 14.0443 2.30685 14.2762 2.30685C14.5181 2.30685 14.7406 2.35141 14.9437 2.44051L14.8554 2.68778C14.6546 2.60313 14.4593 2.5608 14.2696 2.5608C14.1198 2.5608 14.0027 2.5931 13.9184 2.6577C13.834 2.72231 13.7919 2.81197 13.7919 2.92669C13.7919 3.01134 13.8074 3.08096 13.8385 3.13553C13.8696 3.189 13.9217 3.23856 13.9949 3.28423C14.0693 3.32878 14.1825 3.37834 14.3345 3.43292C14.5897 3.52425 14.765 3.62227 14.8604 3.72697C14.957 3.83167 15.0052 3.96755 15.0052 4.13463Z" fill="#003399"/>
<defs>
<linearGradient id="paint0_linear_1484_15238" x1="17.8816" y1="-26.5904" x2="-1.9523" y2="-26.1157" gradientUnits="userSpaceOnUse">
<stop stop-color="#003399"/>
<stop offset="1" stop-color="#0AB671"/>
</linearGradient>
<linearGradient id="paint1_linear_1484_15238" x1="17.8816" y1="-26.5904" x2="-1.9523" y2="-26.1157" gradientUnits="userSpaceOnUse">
<stop stop-color="#003399"/>
<stop offset="1" stop-color="#0AB671"/>
</linearGradient>
<linearGradient id="paint2_linear_1484_15238" x1="18.1041" y1="-32.2141" x2="-1.28411" y2="-31.73" gradientUnits="userSpaceOnUse">
<stop stop-color="#003399"/>
<stop offset="1" stop-color="#0AB671"/>
</linearGradient>
<linearGradient id="paint3_linear_1484_15238" x1="18.1041" y1="-32.2141" x2="-1.28411" y2="-31.73" gradientUnits="userSpaceOnUse">
<stop stop-color="#003399"/>
<stop offset="1" stop-color="#0AB671"/>
</linearGradient>
</defs>
</svg>
