<svg width="25" height="25" viewBox="0 0 25 25" fill="none" xmlns="http://www.w3.org/2000/svg">
<path d="M15.625 4.6875C14.549 4.68779 13.4848 4.9118 12.5 5.34531C11.3111 4.82458 10.0111 4.6083 8.71766 4.71601C7.42419 4.82372 6.17794 5.25203 5.09154 5.96223C4.00513 6.67244 3.11281 7.64215 2.49521 8.78375C1.87761 9.92534 1.5542 11.2028 1.5542 12.5008C1.5542 13.7987 1.87761 15.0762 2.49521 16.2178C3.11281 17.3594 4.00513 18.3291 5.09154 19.0393C6.17794 19.7495 7.42419 20.1778 8.71766 20.2856C10.0111 20.3933 11.3111 20.177 12.5 19.6562C13.5642 20.1211 14.7187 20.3429 15.8794 20.3053C17.0401 20.2677 18.1779 19.9718 19.2098 19.439C20.2418 18.9063 21.1419 18.1501 21.8448 17.2256C22.5476 16.3011 23.0354 15.2315 23.2728 14.0947C23.5101 12.9579 23.491 11.7824 23.2167 10.6539C22.9425 9.52544 22.42 8.4723 21.6875 7.57118C20.9549 6.67006 20.0306 5.94364 18.9818 5.4448C17.9331 4.94595 16.7863 4.68724 15.625 4.6875ZM9.37496 18.75C8.494 18.7532 7.6223 18.5701 6.81706 18.2128C6.01182 17.8555 5.29121 17.3319 4.70252 16.6765C4.11382 16.0211 3.67032 15.2487 3.40112 14.4099C3.13192 13.571 3.0431 12.6848 3.14048 11.8092C3.23786 10.9336 3.51924 10.0885 3.96616 9.32935C4.41309 8.57016 5.01546 7.91403 5.73378 7.404C6.45209 6.89397 7.27011 6.54155 8.13419 6.36987C8.99827 6.19819 9.88888 6.21112 10.7476 6.40781C9.83197 7.13758 9.09257 8.06434 8.58439 9.1192C8.07621 10.1741 7.81231 11.3299 7.81231 12.5008C7.81231 13.6717 8.07621 14.8275 8.58439 15.8824C9.09257 16.9372 9.83197 17.864 10.7476 18.5937C10.2973 18.6964 9.83688 18.7489 9.37496 18.75ZM15.625 18.75C15.163 18.7489 14.7027 18.6964 14.2523 18.5937C15.1681 17.864 15.9076 16.9372 16.4159 15.8823C16.9241 14.8273 17.1881 13.6714 17.1881 12.5004C17.1881 11.3294 16.9241 10.1735 16.4159 9.11853C15.9076 8.0636 15.1681 7.1368 14.2523 6.40703C15.1095 6.21419 15.9977 6.20431 16.8589 6.37804C17.7202 6.55177 18.5351 6.9052 19.2505 7.41525C19.9659 7.92531 20.5657 8.58051 21.0107 9.33809C21.4556 10.0957 21.7358 10.9386 21.8329 11.8118C21.9301 12.685 21.8419 13.5689 21.5742 14.4057C21.3066 15.2426 20.8654 16.0135 20.2795 16.6683C19.6937 17.3231 18.9763 17.8469 18.1743 18.2056C17.3722 18.5643 16.5036 18.7498 15.625 18.75Z" fill="#003399"/>
</svg>
