<svg width="24" height="24" viewBox="0 0 24 24" fill="none" xmlns="http://www.w3.org/2000/svg">
<path d="M17.4251 9.64806L20.6071 12.8301C21.1234 13.3395 21.5339 13.9461 21.8148 14.6148C22.0958 15.2836 22.2417 16.0013 22.2441 16.7267C22.2465 17.4521 22.1054 18.1707 21.829 18.8414C21.5525 19.512 21.1461 20.1213 20.6332 20.6342C20.1203 21.1471 19.511 21.5535 18.8404 21.83C18.1697 22.1064 17.4511 22.2475 16.7257 22.2451C16.0003 22.2427 15.2826 22.0968 14.6138 21.8158C13.9451 21.5349 13.3385 21.1244 12.8291 20.6081L11.7691 19.5481C11.6257 19.4098 11.5114 19.2443 11.4327 19.0613C11.354 18.8784 11.3125 18.6815 11.3107 18.4824C11.3089 18.2832 11.3467 18.0857 11.4221 17.9013C11.4974 17.7169 11.6087 17.5494 11.7495 17.4085C11.8902 17.2676 12.0577 17.1561 12.242 17.0806C12.4263 17.0051 12.6238 16.9671 12.8229 16.9687C13.0221 16.9703 13.219 17.0116 13.402 17.0901C13.585 17.1687 13.7506 17.2829 13.8891 17.4261L14.9511 18.4871C15.4207 18.9524 16.0555 19.2129 16.7166 19.2113C17.3778 19.2098 18.0114 18.9464 18.4788 18.4788C18.9463 18.0113 19.2095 17.3776 19.2108 16.7164C19.2122 16.0553 18.9516 15.4205 18.4861 14.9511L15.3041 11.7691C14.9601 11.425 14.5233 11.1887 14.0471 11.0893C13.5709 10.9898 13.076 11.0314 12.6231 11.2091C12.4611 11.2731 12.3111 11.3391 12.1691 11.4051L11.7051 11.6221C11.0851 11.9021 10.6081 12.0221 10.0011 11.4161C9.12906 10.5441 9.35506 9.73906 10.4181 9.00606C11.4771 8.2778 12.7577 7.94328 14.0376 8.06055C15.3175 8.17782 16.516 8.73947 17.4251 9.64806ZM11.4151 3.63806L12.4751 4.69806C12.7484 4.98083 12.8998 5.35966 12.8966 5.75296C12.8933 6.14626 12.7358 6.52256 12.4578 6.8008C12.1798 7.07905 11.8037 7.23698 11.4104 7.24058C11.0171 7.24418 10.6381 7.09316 10.3551 6.82006L9.29406 5.76006C9.06351 5.52122 8.7877 5.33069 8.48273 5.19958C8.17775 5.06847 7.84972 4.99941 7.51778 4.99643C7.18583 4.99345 6.85661 5.05662 6.54934 5.18223C6.24206 5.30785 5.96288 5.4934 5.72808 5.72807C5.49329 5.96273 5.30757 6.24181 5.18178 6.54901C5.056 6.85622 4.99265 7.1854 4.99544 7.51735C4.99823 7.84929 5.0671 8.17736 5.19804 8.48241C5.32897 8.78746 5.51935 9.06337 5.75806 9.29406L8.94006 12.4761C9.28399 12.8201 9.72083 13.0564 10.197 13.1559C10.6733 13.2553 11.1682 13.2137 11.6211 13.0361C11.7831 12.9721 11.9331 12.9061 12.0751 12.8401L12.5391 12.6231C13.1591 12.3431 13.6371 12.2231 14.2431 12.8291C15.1151 13.7011 14.8891 14.5061 13.8261 15.2391C12.767 15.9673 11.4864 16.3018 10.2065 16.1846C8.9266 16.0673 7.72813 15.5056 6.81906 14.5971L3.63706 11.4151C3.12072 10.9056 2.71026 10.299 2.4293 9.63027C2.14835 8.96151 2.00246 8.24379 2.00003 7.51843C1.9976 6.79306 2.13868 6.07438 2.41514 5.40376C2.69161 4.73314 3.098 4.12383 3.61091 3.61091C4.12383 3.098 4.73314 2.69161 5.40376 2.41514C6.07438 2.13868 6.79306 1.9976 7.51843 2.00003C8.24379 2.00246 8.96151 2.14835 9.63027 2.4293C10.299 2.71026 10.9056 3.12172 11.4151 3.63806Z" fill="#003399"/>
</svg>
