<svg width="29" height="36" viewBox="0 0 29 36" fill="none" xmlns="http://www.w3.org/2000/svg">
<path d="M14.4399 -0.000976562C8.34339 -0.000976562 3.41073 4.92477 3.41073 11.0118V16.4488H7.14122V11.2515C7.14122 7.21531 10.4111 3.94103 14.4399 3.94103C18.4689 3.94103 21.7387 7.3067 21.7387 11.2514V16.4488H25.4692V11.0118C25.4692 5.08025 20.5259 -0.000976562 14.4399 -0.000976562H14.4399ZM1.71834 17.8545C0.619366 19.5716 0 21.5514 0 23.6299C0 30.2763 6.39149 35.7781 14.4401 35.7781C22.4885 35.7781 28.88 30.2763 28.88 23.6299C28.88 21.5512 28.2587 19.5718 27.1594 17.8545H1.71819H1.71834ZM14.4188 19.6551C16.0992 19.6551 17.4934 21.0045 17.4934 22.6849C17.4934 23.9453 16.6961 25.0341 15.6035 25.4964L18.0647 32.8775H10.8153L13.2318 25.4965C12.1391 25.0342 11.3864 23.9454 11.3864 22.6852C11.3864 21.0049 12.7383 19.6553 14.4187 19.6553L14.4188 19.6551Z" fill="#003399"/>
</svg>
