<svg width="25" height="25" viewBox="0 0 25 25" fill="none" xmlns="http://www.w3.org/2000/svg">
<path d="M10.5 4H15.5C15.8978 4 16.2794 4.15804 16.5607 4.43934C16.842 4.72064 17 5.10218 17 5.5C17 6.42826 16.6313 7.3185 15.9749 7.97487C15.3185 8.63125 14.4283 9 13.5 9H12.5C11.5717 9 10.6815 8.63125 10.0251 7.97487C9.36875 7.3185 9 6.42826 9 5.5C9 5.10218 9.15804 4.72064 9.43934 4.43934C9.72064 4.15804 10.1022 4 10.5 4Z" stroke="#003399" stroke-width="2" stroke-linecap="round" stroke-linejoin="round"/>
<path d="M5 18V17C5 14.8783 5.84285 12.8434 7.34315 11.3431C8.84344 9.84285 10.8783 9 13 9C15.1217 9 17.1566 9.84285 18.6569 11.3431C20.1571 12.8434 21 14.8783 21 17V18C21 19.0609 20.5786 20.0783 19.8284 20.8284C19.0783 21.5786 18.0609 22 17 22H9C7.93913 22 6.92172 21.5786 6.17157 20.8284C5.42143 20.0783 5 19.0609 5 18Z" stroke="#003399" stroke-width="2" stroke-linecap="round" stroke-linejoin="round"/>
</svg>
