<svg width="19" height="22" viewBox="0 0 19 22" fill="none" xmlns="http://www.w3.org/2000/svg">
<path fill-rule="evenodd" clip-rule="evenodd" d="M1.84217 16.1791C1.77035 16.1073 1.71544 16.0249 1.67745 15.937C0.618339 14.3664 0 12.4732 0 10.4379C0 4.99951 4.40869 0.59082 9.84709 0.59082C10.7197 0.59082 11.5668 0.704503 12.3741 0.918289C12.791 1.02868 13.0395 1.45611 12.9291 1.87298C12.8187 2.28985 12.3912 2.5383 11.9744 2.42791C11.2964 2.24836 10.5835 2.15247 9.84709 2.15247C5.27117 2.15247 1.56165 5.86199 1.56165 10.4379C1.56165 11.8605 1.91961 13.1979 2.55033 14.3667L3.3241 13.5929C2.86166 12.6384 2.60254 11.5674 2.60254 10.4377C2.60254 6.43676 5.84594 3.19336 9.84688 3.19336C10.2781 3.19336 10.6277 3.54295 10.6277 3.97419C10.6277 4.40542 10.2781 4.75501 9.84688 4.75501C6.70842 4.75501 4.16419 7.29924 4.16419 10.4377C4.16419 11.1296 4.28753 11.7916 4.51325 12.4037L16.6883 0.228721C16.9932 -0.076211 17.4876 -0.076211 17.7925 0.228721C18.0975 0.533653 18.0975 1.02804 17.7925 1.33298L2.94642 16.1791C2.64149 16.484 2.1471 16.484 1.84217 16.1791ZM16.5995 6.97422L15.8143 7.75946C16.1896 8.63537 16.3972 9.59971 16.3972 10.6108C16.3972 14.6118 13.1538 17.8552 9.1529 17.8552C8.72166 17.8552 8.37207 17.5056 8.37207 17.0743C8.37207 16.6431 8.72166 16.2935 9.1529 16.2935C12.2914 16.2935 14.8356 13.7493 14.8356 10.6108C14.8356 10.042 14.7522 9.49355 14.5973 8.97648L2.46009 21.1137C2.15516 21.4186 1.66077 21.4186 1.35584 21.1137C1.05091 20.8087 1.05091 20.3143 1.35584 20.0094L16.2019 5.16329C16.4612 4.90403 16.8574 4.8652 17.1577 5.04681C17.2772 5.10788 17.3825 5.20058 17.4599 5.32188C18.4351 6.85029 19.0001 8.66623 19.0001 10.6117C19.0001 16.0501 14.5914 20.4588 9.15299 20.4588C8.16023 20.4588 7.20043 20.3117 6.29495 20.0375C5.88222 19.9125 5.64897 19.4765 5.77396 19.0638C5.89895 18.6511 6.33486 18.4178 6.74759 18.5428C7.5079 18.7731 8.31525 18.8972 9.15299 18.8972C13.7289 18.8972 17.4384 15.1877 17.4384 10.6117C17.4384 9.30579 17.1368 8.0718 16.5995 6.97422Z" fill="#003399"/>
</svg>
