<svg width="28" height="28" viewBox="0 0 28 28" fill="none" xmlns="http://www.w3.org/2000/svg">
<g clip-path="url(#clip0_1502_17293)">
<path d="M12.1438 7.16137C12.51 6.41086 13.0709 5.77239 13.768 5.31254C14.4651 4.85269 15.2728 4.58832 16.1069 4.54701C16.9409 4.5057 17.7708 4.68897 18.5099 5.07768C19.249 5.4664 19.8703 6.04633 20.3089 6.75697C20.7475 7.46762 20.9874 8.28294 21.0035 9.11788C21.0196 9.95282 20.8114 10.7768 20.4006 11.5038C19.9897 12.2309 19.3913 12.8344 18.6678 13.2513C17.9442 13.6683 17.122 13.8834 16.287 13.8744L14.921 16.675L19.1154 18.7207C19.91 19.1083 20.518 19.7956 20.8059 20.6315C21.0937 21.4674 21.0377 22.3834 20.6501 23.1779L19.7734 24.9755L1.7975 16.2081L2.67424 14.4105C3.06178 13.6159 3.7491 13.0079 4.58499 12.72C5.42088 12.4322 6.33687 12.4882 7.13146 12.8758L11.3258 14.9215L12.6918 12.1209C12.1405 11.4308 11.7963 10.5984 11.6993 9.72051C11.6023 8.84259 11.7564 7.95516 12.1438 7.16137ZM1.213 17.4065L0.628508 18.6049L18.6044 27.3723L19.1889 26.1739L1.213 17.4065Z" fill="#003399"/>
</g>
<defs>
<clipPath id="clip0_1502_17293">
<rect width="20" height="20" fill="white" transform="translate(9.39648 0.628906) rotate(26)"/>
</clipPath>
</defs>
</svg>
